<svg width="10" height="9" viewBox="0 0 10 9" fill="none" xmlns="http://www.w3.org/2000/svg">
<path fill-rule="evenodd" clip-rule="evenodd" d="M0 4.72826C0 4.51087 0.0805454 4.33062 0.241634 4.18478L4.41845 0.228261C4.58721 0.076087 4.78282 0 5.00527 0C5.22773 0 5.41854 0.076087 5.58059 0.228261L9.75837 4.18478C9.91946 4.33062 10 4.50906 10 4.72283C10 4.93659 9.91946 5.12409 9.75837 5.28261L9.2866 5.72826C9.11784 5.88043 8.92128 5.95652 8.69882 5.95652C8.47732 5.95652 8.28459 5.88043 8.1235 5.72826L6.23646 3.94565V8.2183C6.23646 8.42754 6.15591 8.6087 5.99482 8.76087C5.83373 8.91304 5.63812 8.99275 5.408 9H4.59104C4.36859 9 4.17682 8.92029 4.01573 8.76087C3.8556 8.60145 3.77505 8.42029 3.77505 8.2183L3.77505 3.94565L1.87554 5.72826C1.72212 5.88043 1.53323 5.95652 1.30597 5.95652C1.07968 5.95652 0.882155 5.88043 0.713395 5.72826L0.241634 5.28261C0.0805454 5.12409 0 4.93841 0 4.72826Z" fill="#276795"/>
</svg>
