<svg width="10" height="9" viewBox="0 0 10 9" fill="none" xmlns="http://www.w3.org/2000/svg">
<path fill-rule="evenodd" clip-rule="evenodd" d="M10 4.27174C10 4.48913 9.91945 4.66938 9.75837 4.81522L5.58155 8.77174C5.41279 8.92391 5.21718 9 4.99473 9C4.77227 9 4.58146 8.92391 4.41941 8.77174L0.241634 4.81522C0.0805446 4.66938 0 4.49094 0 4.27717C0 4.06341 0.0805446 3.87591 0.241634 3.71739L0.713395 3.27174C0.882156 3.11957 1.07872 3.04348 1.30118 3.04348C1.52268 3.04348 1.71541 3.11957 1.8765 3.27174L3.76354 5.05435V0.781703C3.76354 0.572464 3.84409 0.391304 4.00518 0.23913C4.16627 0.0869565 4.36188 0.00724638 4.592 0H5.40896C5.63141 0 5.82318 0.0797101 5.98427 0.23913C6.1444 0.398551 6.22495 0.57971 6.22495 0.781703V5.05435L8.12446 3.27174C8.27788 3.11957 8.46677 3.04348 8.69403 3.04348C8.92032 3.04348 9.11784 3.11957 9.2866 3.27174L9.75837 3.71739C9.91945 3.87591 10 4.06159 10 4.27174Z" fill="#276795"/>
</svg>
