<svg width="16" height="17" viewBox="0 0 16 17" fill="none" xmlns="http://www.w3.org/2000/svg">
<path fill-rule="evenodd" clip-rule="evenodd" d="M9.752 1.03632C11.1832 -0.418315 13.3448 -0.333086 14.8908 1.23833C15.606 1.96585 16 2.93308 16 3.96198C16 4.99128 15.606 5.95851 14.8912 6.68563L11.7118 9.91655C10.7298 10.9153 9.697 11.4197 8.7192 11.4197C7.9206 11.4197 7.1588 11.0833 6.4914 10.4048C6.1028 10.0098 6.1004 9.36666 6.4864 8.96879C6.8724 8.57091 7.4998 8.56846 7.8884 8.96367L7.88845 8.96371C8.17947 9.25958 8.86148 9.95294 10.3152 8.47544L13.4946 5.24451C13.8316 4.90175 14.0172 4.44631 14.0172 3.96218C14.0172 3.47826 13.8318 3.02282 13.4942 2.68006C12.861 2.03653 11.8902 1.72389 11.1488 2.47805L10.14 3.50367C9.7514 3.89887 9.1238 3.89662 8.7378 3.49854C8.3518 3.10047 8.3542 2.45776 8.7428 2.06255L9.752 1.03632ZM5.05 13.8275L5.8596 13.0039C6.2482 12.6087 6.8764 12.6109 7.2618 13.0086C7.6478 13.4067 7.6456 14.0496 7.2572 14.4446L6.447 15.2684C5.7108 16.0166 4.7442 16.3903 3.7774 16.3903C2.8108 16.3903 1.8446 16.0166 1.1088 15.2688C0.3936 14.5417 0 13.5749 0 12.5455C0 11.5162 0.3936 10.5492 1.1086 9.8221L4.0888 6.79319C5.9416 4.90995 8.069 4.63951 9.5084 6.10275C9.897 6.49775 9.8994 7.14087 9.5134 7.53874C9.1276 7.93661 8.5 7.93927 8.1114 7.54386C7.2646 6.68358 6.1028 7.60737 5.4852 8.23471L2.5052 11.2634C2.1684 11.6062 1.983 12.0616 1.983 12.5455C1.983 13.0295 2.1682 13.4847 2.5054 13.8275C3.2068 14.5407 4.3482 14.54 5.05 13.8275Z" fill="#7C7C7C"/>
</svg>
